<svg xmlns="http://www.w3.org/2000/svg" xmlns:xlink="http://www.w3.org/1999/xlink" width="284.003" height="131.004" viewBox="0 0 284.003 131.004">
  <defs>
    <filter id="Union_157" x="0" y="0" width="284.003" height="131.004" filterUnits="userSpaceOnUse">
      <feOffset input="SourceAlpha"/>
      <feGaussianBlur stdDeviation="2.5" result="blur"/>
      <feFlood flood-opacity="0.098"/>
      <feComposite operator="in" in2="blur"/>
      <feComposite in="SourceGraphic"/>
    </filter>
  </defs>
  <g transform="matrix(1, 0, 0, 1, 0, 0)" filter="url(#Union_157)">
    <g id="Union_157-2" data-name="Union 157" transform="translate(-10474.5 20860.5)" fill="#fff">
      <path d="M 10749.349609375 -20737.498046875 L 10720.998046875 -20737.498046875 L 10491.9990234375 -20737.498046875 C 10486.759765625 -20737.498046875 10482.498046875 -20741.759765625 10482.498046875 -20746.998046875 L 10482.498046875 -20843 C 10482.498046875 -20848.240234375 10486.759765625 -20852.501953125 10491.9990234375 -20852.501953125 L 10721.9970703125 -20852.501953125 C 10727.236328125 -20852.501953125 10731.4990234375 -20848.240234375 10731.4990234375 -20843 L 10731.4990234375 -20749.666015625 L 10731.4990234375 -20749.3984375 L 10731.7216796875 -20749.25 L 10749.349609375 -20737.498046875 Z" stroke="none"/>
      <path d="M 10747.6982421875 -20737.998046875 L 10731.4443359375 -20748.833984375 L 10730.9990234375 -20749.130859375 L 10730.9990234375 -20749.666015625 L 10730.9990234375 -20843 C 10730.9990234375 -20847.962890625 10726.9609375 -20852.001953125 10721.9970703125 -20852.001953125 L 10491.9990234375 -20852.001953125 C 10487.0361328125 -20852.001953125 10482.998046875 -20847.962890625 10482.998046875 -20843 L 10482.998046875 -20746.998046875 C 10482.998046875 -20742.03515625 10487.0361328125 -20737.998046875 10491.9990234375 -20737.998046875 L 10720.998046875 -20737.998046875 L 10747.6982421875 -20737.998046875 M 10751.0009765625 -20736.998046875 L 10720.998046875 -20736.998046875 L 10491.9990234375 -20736.998046875 C 10486.478515625 -20736.998046875 10481.998046875 -20741.4765625 10481.998046875 -20746.998046875 L 10481.998046875 -20843 C 10481.998046875 -20848.521484375 10486.478515625 -20853.001953125 10491.9990234375 -20853.001953125 L 10721.9970703125 -20853.001953125 C 10727.5244140625 -20853.001953125 10731.9990234375 -20848.521484375 10731.9990234375 -20843 L 10731.9990234375 -20749.666015625 L 10751.0009765625 -20736.998046875 Z" stroke="none" fill="#e0e0e0"/>
    </g>
  </g>
</svg>
