<svg xmlns="http://www.w3.org/2000/svg" width="50" height="50" viewBox="0 0 50 50">
  <g id="Group_600" data-name="Group 600" transform="translate(-503 -752)">
    <g id="Ellipse_3750" data-name="Ellipse 3750" transform="translate(503 752)" fill="#fff" stroke="#e0e0e0" stroke-width="1">
      <circle cx="25" cy="25" r="25" stroke="none"/>
      <circle cx="25" cy="25" r="24.5" fill="none"/>
    </g>
    <g id="facebook-logo" transform="translate(497.923 762.127)">
      <path id="Path_583" data-name="Path 583" d="M37.683.006,33.794,0C29.424,0,26.6,2.9,26.6,7.382v3.4H22.689a.612.612,0,0,0-.612.612v4.931a.612.612,0,0,0,.612.612H26.6V29.384a.611.611,0,0,0,.612.612h5.1a.612.612,0,0,0,.612-.612V16.94H37.5a.611.611,0,0,0,.612-.612l0-4.931a.612.612,0,0,0-.612-.612H32.925V7.9c0-1.387.33-2.091,2.137-2.091h2.62a.612.612,0,0,0,.611-.612V.618A.612.612,0,0,0,37.683.006Z" fill="#475993"/>
    </g>
  </g>
</svg>
