<svg xmlns="http://www.w3.org/2000/svg" width="39.34" height="35" viewBox="0 0 39.34 35">
  <path id="heart" d="M19.67,35a2.307,2.307,0,0,1-1.521-.571c-1.589-1.39-3.121-2.7-4.473-3.848l-.007-.006A83.2,83.2,0,0,1,3.9,21.408C1.24,18.2,0,15.15,0,11.823a12.3,12.3,0,0,1,3.121-8.4A10.579,10.579,0,0,1,10.99,0a9.9,9.9,0,0,1,6.181,2.134,12.646,12.646,0,0,1,2.5,2.609,12.647,12.647,0,0,1,2.5-2.609A9.9,9.9,0,0,1,28.35,0a10.579,10.579,0,0,1,7.869,3.425,12.3,12.3,0,0,1,3.121,8.4c0,3.327-1.24,6.373-3.9,9.584a83.179,83.179,0,0,1-9.766,9.167c-1.354,1.154-2.889,2.462-4.482,3.855A2.309,2.309,0,0,1,19.67,35ZM10.99,2.3A8.3,8.3,0,0,0,4.815,4.987,10,10,0,0,0,2.3,11.823c0,2.8,1.04,5.3,3.372,8.114a81.87,81.87,0,0,0,9.487,8.884l.007.006c1.357,1.156,2.9,2.467,4.5,3.867,1.611-1.4,3.151-2.716,4.511-3.874a81.884,81.884,0,0,0,9.487-8.884c2.331-2.814,3.371-5.316,3.371-8.114a10,10,0,0,0-2.511-6.836A8.3,8.3,0,0,0,28.35,2.3a7.643,7.643,0,0,0-4.772,1.652A11.182,11.182,0,0,0,20.92,7.033a1.455,1.455,0,0,1-2.5,0,11.172,11.172,0,0,0-2.659-3.077A7.643,7.643,0,0,0,10.99,2.3Zm0,0" fill="#fff"/>
</svg>
