<svg id="圖層_1" data-name="圖層 1" xmlns="http://www.w3.org/2000/svg" viewBox="0 0 50 50"><defs><style>.cls-1{fill:#333;}</style></defs><title>ic_picture</title><path id="Path_581" data-name="Path 581" class="cls-1" d="M6.51,9.69h36.8a.6.6,0,0,1,.6.6v28.8a.59.59,0,0,1-.6.6H6.51a.6.6,0,0,1-.6-.6V10.29A.6.6,0,0,1,6.51,9.69Zm3,25.2,8.28-8.58a.25.25,0,0,1,.34,0l5.75,5.06,7.34-9a.21.21,0,0,1,.2-.09.26.26,0,0,1,.19.1L40.3,34V13.31H9.53V34.89Z"/><path id="Path_582" data-name="Path 582" class="cls-1" d="M18.61,22a3,3,0,1,1,3-3h0A3,3,0,0,1,18.61,22Z"/></svg>