<svg xmlns="http://www.w3.org/2000/svg" width="50" height="50" viewBox="0 0 50 50">
  <g id="Group_601" data-name="Group 601" transform="translate(-503 -752)">
    <g id="Ellipse_3750" data-name="Ellipse 3750" transform="translate(503 752)" fill="#fff" stroke="#e0e0e0" stroke-width="1">
      <circle cx="25" cy="25" r="25" stroke="none"/>
      <circle cx="25" cy="25" r="24.5" fill="none"/>
    </g>
    <g id="メールの無料アイコンその8" transform="translate(513 710.266)">
      <path id="Path_633" data-name="Path 633" d="M29.923,58.414a4.15,4.15,0,0,0-.859-1.82,3.578,3.578,0,0,0-.283-.313,4.152,4.152,0,0,0-2.942-1.22H4.161a4.158,4.158,0,0,0-2.942,1.22,3.653,3.653,0,0,0-.283.313,4.1,4.1,0,0,0-.856,1.82A4.025,4.025,0,0,0,0,59.224V74.448A4.138,4.138,0,0,0,.345,76.1a4.079,4.079,0,0,0,.875,1.289c.093.093.186.178.287.263a4.158,4.158,0,0,0,2.655.956H25.839a4.131,4.131,0,0,0,2.656-.96,3.594,3.594,0,0,0,.287-.26,4.164,4.164,0,0,0,.879-1.289v0A4.117,4.117,0,0,0,30,74.448V59.224A4.276,4.276,0,0,0,29.923,58.414Zm-27.2-.627a2.01,2.01,0,0,1,1.436-.6H25.839A2,2,0,0,1,27.457,58L16.1,67.9a1.668,1.668,0,0,1-2.191,0L2.547,58A1.536,1.536,0,0,1,2.725,57.787Zm-.6,16.661V60.2l8.222,7.173L2.133,74.537A.608.608,0,0,1,2.129,74.448Zm23.71,2.032H4.161a2,2,0,0,1-1.006-.267l8.671-7.556.809.7a3.6,3.6,0,0,0,4.734,0l.809-.7,8.667,7.556A2.007,2.007,0,0,1,25.839,76.48Zm2.032-2.032a.634.634,0,0,1,0,.089l-8.218-7.161L27.871,60.2Z" transform="translate(0 0)" fill="#666"/>
    </g>
  </g>
</svg>
