<svg id="Group_1183" data-name="Group 1183" xmlns="http://www.w3.org/2000/svg" width="229.2" height="185.1" viewBox="0 0 229.2 185.1">
  <ellipse id="Ellipse_4060" data-name="Ellipse 4060" cx="114.6" cy="20.5" rx="114.6" ry="20.5" transform="translate(0 144.1)" fill="#dfe5e9"/>
  <g id="Group_1182" data-name="Group 1182">
    <path id="Path_1183" data-name="Path 1183" d="M156.8,158.1H34a3.8,3.8,0,0,1-3.8-3.8V71.6A3.8,3.8,0,0,1,34,67.8H156.8a3.8,3.8,0,0,1,3.8,3.8v82.7A3.736,3.736,0,0,1,156.8,158.1Z" fill="#fff" stroke="#485aa7" stroke-linecap="round" stroke-linejoin="round" stroke-miterlimit="10" stroke-width="5"/>
    <path id="Path_1184" data-name="Path 1184" d="M159.2,80.6H31.6a1.367,1.367,0,0,1-1.4-1.4V69.3a1.367,1.367,0,0,1,1.4-1.4H159.2a1.367,1.367,0,0,1,1.4,1.4v9.9A1.365,1.365,0,0,1,159.2,80.6Z" fill="#485aa7"/>
    <rect id="Rectangle_2735" data-name="Rectangle 2735" width="31" height="25.9" transform="translate(41.4 88.2)" fill="#dfe5e9"/>
    <rect id="Rectangle_2736" data-name="Rectangle 2736" width="31" height="25.9" transform="translate(80.7 88.2)" fill="#dfe5e9"/>
    <rect id="Rectangle_2737" data-name="Rectangle 2737" width="31" height="25.9" transform="translate(41.4 122)" fill="#dfe5e9"/>
    <rect id="Rectangle_2738" data-name="Rectangle 2738" width="31" height="25.9" transform="translate(80.7 122)" fill="#dfe5e9"/>
    <rect id="Rectangle_2739" data-name="Rectangle 2739" width="31" height="25.9" transform="translate(118.9 122)" fill="#dfe5e9"/>
    <circle id="Ellipse_4061" data-name="Ellipse 4061" cx="3.2" cy="3.2" r="3.2" transform="translate(54.7 71)" fill="#54b332"/>
    <circle id="Ellipse_4062" data-name="Ellipse 4062" cx="3.2" cy="3.2" r="3.2" transform="translate(43 71)" fill="#f5ca24"/>
    <path id="Path_1185" data-name="Path 1185" d="M207.7,6.7V128.9a4.225,4.225,0,0,1-4.2,4.2H105.6a4.225,4.225,0,0,1-4.2-4.2V6.7a4.225,4.225,0,0,1,4.2-4.2h97.9A4.225,4.225,0,0,1,207.7,6.7Z" fill="#fff" stroke="#485aa7" stroke-linecap="round" stroke-linejoin="round" stroke-miterlimit="10" stroke-width="5"/>
    <path id="Path_1186" data-name="Path 1186" d="M194.7,17.1V63.6a2.263,2.263,0,0,1-2.3,2.3H116.6a2.263,2.263,0,0,1-2.3-2.3V17.1a2.263,2.263,0,0,1,2.3-2.3h75.8A2.4,2.4,0,0,1,194.7,17.1Z" fill="#b9c5e5"/>
    <circle id="Ellipse_4063" data-name="Ellipse 4063" cx="3.2" cy="3.2" r="3.2" transform="translate(33.5 71)" fill="#d4181a"/>
    <path id="Path_1187" data-name="Path 1187" d="M162.7,43.8l-2.5,3.8a1.415,1.415,0,0,1-2.2,0l-7-10.8a1.415,1.415,0,0,0-2.2,0L138.1,53a1.138,1.138,0,0,0,1.1,1.7h30.6a1.123,1.123,0,0,0,1.1-1.7l-6.1-9.2A1.218,1.218,0,0,0,162.7,43.8Z" fill="#fff"/>
    <circle id="Ellipse_4064" data-name="Ellipse 4064" cx="4.6" cy="4.6" r="4.6" transform="translate(157.4 27.1)" fill="#fff"/>
    <path id="Path_1188" data-name="Path 1188" d="M191.2,80.6H117.4a3.159,3.159,0,0,1-3.2-3.2h0a3.159,3.159,0,0,1,3.2-3.2h73.8a3.159,3.159,0,0,1,3.2,3.2h0A3.159,3.159,0,0,1,191.2,80.6Z" fill="#ccc"/>
    <path id="Path_1189" data-name="Path 1189" d="M191.2,93.6H117.4a3.159,3.159,0,0,1-3.2-3.2h0a3.159,3.159,0,0,1,3.2-3.2h73.8a3.159,3.159,0,0,1,3.2,3.2h0A3.222,3.222,0,0,1,191.2,93.6Z" fill="#dfe5e9"/>
    <path id="Path_1190" data-name="Path 1190" d="M191.2,106.5H117.4a3.159,3.159,0,0,1-3.2-3.2h0a3.159,3.159,0,0,1,3.2-3.2h73.8a3.159,3.159,0,0,1,3.2,3.2h0A3.159,3.159,0,0,1,191.2,106.5Z" fill="#ccc"/>
    <path id="Path_1191" data-name="Path 1191" d="M191.2,119.5H117.4a3.159,3.159,0,0,1-3.2-3.2h0a3.159,3.159,0,0,1,3.2-3.2h73.8a3.159,3.159,0,0,1,3.2,3.2h0A3.222,3.222,0,0,1,191.2,119.5Z" fill="#dfe5e9"/>
  </g>
</svg>
