<svg xmlns="http://www.w3.org/2000/svg" width="50" height="50" viewBox="0 0 50 50">
  <g id="Group_599" data-name="Group 599" transform="translate(-403 -752)">
    <g id="Ellipse_3749" data-name="Ellipse 3749" transform="translate(403 752)" fill="#fff" stroke="#e0e0e0" stroke-width="1">
      <circle cx="25" cy="25" r="25" stroke="none"/>
      <circle cx="25" cy="25" r="24.5" fill="none"/>
    </g>
    <path id="Path_552" data-name="Path 552" d="M37.113,22.418c0-5.867-5.879-10.637-13.105-10.637S10.9,16.551,10.9,22.418c0,5.258,4.664,9.66,10.961,10.492.426.094,1.008.285,1.156.648a2.693,2.693,0,0,1,.043,1.184s-.156.926-.187,1.121c-.059.332-.266,1.3,1.133.707s7.551-4.441,10.3-7.609h0A9.449,9.449,0,0,0,37.113,22.418ZM18.875,25.906H16.27a.685.685,0,0,1-.684-.687V20.012a.686.686,0,1,1,1.371,0v4.52h1.918a.688.688,0,0,1,0,1.375Zm2.691-.687a.686.686,0,1,1-1.371,0V20.012a.686.686,0,1,1,1.371,0Zm6.273,0a.689.689,0,0,1-1.238.414L23.934,22v3.223a.689.689,0,0,1-1.379,0V20.012a.689.689,0,0,1,1.238-.414l2.672,3.637V20.012a.688.688,0,0,1,1.375,0Zm4.211-3.293a.688.688,0,0,1,0,1.375H30.137v1.23h1.914a.688.688,0,0,1,0,1.375h-2.6a.689.689,0,0,1-.687-.687V20.012a.689.689,0,0,1,.688-.687h2.6a.688.688,0,0,1,0,1.375H30.137v1.23h1.914Z" transform="translate(404 753)" fill="#00c300"/>
  </g>
</svg>
