<svg xmlns="http://www.w3.org/2000/svg" width="218.368" height="40.003" viewBox="0 0 218.368 40.003">
  <g id="logo_gogofun" transform="translate(-53.335 -404.499)">
    <path id="Path_820" data-name="Path 820" d="M8,0H72.005a8,8,0,0,1,8,8V32a8,8,0,0,1-8,8H8a8,8,0,0,1-8-8V8A8,8,0,0,1,8,0Z" transform="translate(191.698 404.499)" fill="#32d2bd"/>
    <g id="Group_648" data-name="Group 648" transform="translate(53.335 404.499)">
      <path id="Path_707" data-name="Path 707" d="M89.52,428.652a6.3,6.3,0,0,0-.784-3.26q-.8-1.14-3.133-1.14H76.089a4.768,4.768,0,0,0-2.962.76,2.984,2.984,0,0,0-.968,2.5,2.828,2.828,0,0,0,.911,2.415,5.031,5.031,0,0,0,2.962.678h5.954a9.423,9.423,0,0,1-2.588,4.971,9.605,9.605,0,0,1-2.962,2.008,8.954,8.954,0,0,1-3.617.733,12.04,12.04,0,0,1-4.9-.977,10.943,10.943,0,0,1-3.817-2.768,12.657,12.657,0,0,1-2.478-4.342,17.506,17.506,0,0,1-.883-5.753,16.852,16.852,0,0,1,.911-5.7,13.614,13.614,0,0,1,2.45-4.342,10.623,10.623,0,0,1,8.146-3.745,12.34,12.34,0,0,1,4.757.841,13.648,13.648,0,0,1,4.3,3.175c.456.434,1.424,1.973,1.876,2.289h0a3.354,3.354,0,0,0,5.787-3.113s0,0,0,0a10.763,10.763,0,0,0-1.8-3.056,12.308,12.308,0,0,0-2.108-2.117,25.042,25.042,0,0,0-2.848-1.981,15.987,15.987,0,0,0-4.842-1.818,27.891,27.891,0,0,0-4.9-.407,19.889,19.889,0,0,0-8.118,1.574,17.516,17.516,0,0,0-6.01,4.288,18.488,18.488,0,0,0-3.731,6.4,24.167,24.167,0,0,0-1.282,7.979,23.421,23.421,0,0,0,1.339,8.142,17.194,17.194,0,0,0,3.874,6.215,17.37,17.37,0,0,0,6.124,3.99,21.959,21.959,0,0,0,8.089,1.411,19.6,19.6,0,0,0,7.8-1.384,16.046,16.046,0,0,0,2.063-1.076,3.552,3.552,0,0,0,3.379,2.46h0a3.553,3.553,0,0,0,3.553-3.552v-12.3H89.52Z" transform="translate(-53.335 -404.499)" fill="#fff"/>
      <path id="Path_708" data-name="Path 708" d="M254.188,467.1c-8.829,0-15.385,6.135-15.385,13.694v.1c0,7.558,6.5,13.6,15.28,13.6,8.829,0,15.385-6.135,15.385-13.694v-.1C269.468,473.136,262.965,467.1,254.188,467.1Zm7.349,13.792a6.981,6.981,0,0,1-7.349,7.166,7.242,7.242,0,0,1-7.455-7.264v-.1a6.981,6.981,0,0,1,7.349-7.166,7.242,7.242,0,0,1,7.455,7.264Z" transform="translate(-201.427 -454.484)" fill="#fff"/>
      <path id="Path_709" data-name="Path 709" d="M432.5,428.652a6.3,6.3,0,0,0-.784-3.26q-.8-1.14-3.133-1.14h-9.514a4.767,4.767,0,0,0-2.962.76,2.984,2.984,0,0,0-.968,2.5,2.828,2.828,0,0,0,.912,2.415,5.032,5.032,0,0,0,2.962.678h5.954a9.418,9.418,0,0,1-2.588,4.971,9.6,9.6,0,0,1-2.962,2.008,8.953,8.953,0,0,1-3.617.733,12.04,12.04,0,0,1-4.9-.977,10.944,10.944,0,0,1-3.817-2.768,12.658,12.658,0,0,1-2.478-4.342,17.506,17.506,0,0,1-.883-5.753,16.848,16.848,0,0,1,.911-5.7,13.613,13.613,0,0,1,2.45-4.342,10.622,10.622,0,0,1,8.146-3.745,12.34,12.34,0,0,1,4.757.841,13.651,13.651,0,0,1,4.3,3.175c.456.434,1.424,1.973,1.876,2.289h0a3.353,3.353,0,0,0,5.787-3.113s0,0,0,0a10.768,10.768,0,0,0-1.8-3.056,12.308,12.308,0,0,0-2.108-2.117,25.064,25.064,0,0,0-2.848-1.981,15.986,15.986,0,0,0-4.842-1.818,27.889,27.889,0,0,0-4.9-.407,19.89,19.89,0,0,0-8.118,1.574,17.518,17.518,0,0,0-6.01,4.288,18.49,18.49,0,0,0-3.731,6.4,24.167,24.167,0,0,0-1.282,7.979,23.421,23.421,0,0,0,1.339,8.142,17.2,17.2,0,0,0,3.874,6.215,17.372,17.372,0,0,0,6.124,3.99,21.96,21.96,0,0,0,8.089,1.411,19.6,19.6,0,0,0,7.8-1.384,16.062,16.062,0,0,0,2.062-1.076,3.553,3.553,0,0,0,3.38,2.46h0a3.553,3.553,0,0,0,3.553-3.552v-12.3H432.5Z" transform="translate(-327.193 -404.499)" fill="#fff"/>
      <path id="Path_710" data-name="Path 710" d="M597.164,467.1c-8.829,0-15.385,6.135-15.385,13.694v.1c0,7.558,6.5,13.6,15.279,13.6,8.829,0,15.385-6.135,15.385-13.694v-.1C612.444,473.136,605.941,467.1,597.164,467.1Zm7.349,13.792a6.981,6.981,0,0,1-7.349,7.166,7.242,7.242,0,0,1-7.455-7.264v-.1a6.981,6.981,0,0,1,7.349-7.166,7.242,7.242,0,0,1,7.455,7.264Z" transform="translate(-475.284 -454.484)" fill="#fff"/>
    </g>
    <g id="Group_649" data-name="Group 649" transform="translate(199.214 411.203)">
      <path id="Path_711" data-name="Path 711" d="M798.483,437.764H780.576a3.365,3.365,0,0,0-3.365,3.365v20.828a2.677,2.677,0,0,0,2.676,2.677h.054a2.677,2.677,0,0,0,2.676-2.677V454.3H796.7a2.006,2.006,0,0,0,2.006-2.006v-.471a2.006,2.006,0,0,0-2.006-2.006H782.617V443.83a1.53,1.53,0,0,1,1.53-1.53h14.544a2.06,2.06,0,0,0,2.06-2.06v-.208A2.267,2.267,0,0,0,798.483,437.764Z" transform="translate(-777.211 -437.764)" fill="#fff"/>
      <path id="Path_712" data-name="Path 712" d="M916.477,496.757h0a2.507,2.507,0,0,0-2.346,1.648l-.015.044-.006.022a2.468,2.468,0,0,0-.13.783V501.6c-.047,1.043-.111,2.005-.144,2.132a3.64,3.64,0,0,1-1.1,1.819,4.867,4.867,0,0,1-1.883,1.406,6.058,6.058,0,0,1-2.332.444,5.219,5.219,0,0,1-1.816-.321,3.861,3.861,0,0,1-.75-.373q-.157-.1-.306-.216l-.045-.036q-.1-.082-.2-.172l-.038-.035a1.884,1.884,0,0,1-.3-.44,5.1,5.1,0,0,1-.489-2.518c-.018-1.728.04-4.148.04-4.148a2.279,2.279,0,0,0-2.243-2.313h-.483c-.056,0-.11,0-.165.009a2.284,2.284,0,0,0-2.078,2.3v3.473a10.238,10.238,0,0,0,.723,4.022q.183.43.4.822a7.319,7.319,0,0,0,1.539,1.967,7.729,7.729,0,0,0,2.813,1.6,10.787,10.787,0,0,0,2.8.5,7.958,7.958,0,0,0,3.79-1.143,6.482,6.482,0,0,0,2.275-2.287v.933a2.5,2.5,0,0,0,2.5,2.5h0a2.5,2.5,0,0,0,2.5-2.5v-9.783A2.5,2.5,0,0,0,916.477,496.757Z" transform="translate(-874.968 -484.868)" fill="#fff"/>
      <path id="Path_713" data-name="Path 713" d="M1022.056,483.768q-.183-.431-.4-.822a7.335,7.335,0,0,0-1.539-1.966,7.732,7.732,0,0,0-2.814-1.6,10.773,10.773,0,0,0-2.8-.5,9.611,9.611,0,0,0-4.193,1.143,6.48,6.48,0,0,0-2.275,2.287v-.933a2.5,2.5,0,0,0-2.5-2.5h0a2.5,2.5,0,0,0-2.5,2.5v13.41a2.5,2.5,0,0,0,4.842.848l.014-.044.006-.022a2.473,2.473,0,0,0,.13-.783l.1-1.958c0-2.241.015-6.024.048-6.151a3.637,3.637,0,0,1,1.1-1.819,4.864,4.864,0,0,1,1.883-1.406A6.055,6.055,0,0,1,1013.5,483a5.221,5.221,0,0,1,1.816.321,3.86,3.86,0,0,1,.75.373q.157.1.306.216l.045.036q.1.082.2.172l.038.035a1.883,1.883,0,0,1,.3.44,5.1,5.1,0,0,1,.489,2.518c.018,1.728-.04,7.775-.04,7.775a2.279,2.279,0,0,0,2.243,2.313h.483c.055,0,.11,0,.165-.009a2.284,2.284,0,0,0,2.079-2.3l.026-3.049C1022.4,490.294,1022.538,484.9,1022.056,483.768Z" transform="translate(-957.532 -470.59)" fill="#fff"/>
      <path id="Path_714" data-name="Path 714" d="M971.827,459.278a2.668,2.668,0,0,0-2.661,2.66h0a2.661,2.661,0,1,0,5.321,0h0A2.668,2.668,0,0,0,971.827,459.278Z" transform="translate(-930.482 -454.942)" fill="#fff"/>
      <path id="Path_715" data-name="Path 715" d="M901.688,464.6a2.668,2.668,0,0,0,2.66-2.661h0a2.66,2.66,0,0,0-5.321,0h0A2.668,2.668,0,0,0,901.688,464.6Z" transform="translate(-874.478 -454.942)" fill="#fff"/>
    </g>
  </g>
</svg>
