<svg xmlns="http://www.w3.org/2000/svg" width="102.345" height="88.274" viewBox="0 0 102.345 88.274">
  <g id="Group_1170" data-name="Group 1170" transform="translate(0 -1.341)">
    <ellipse id="Ellipse_3914" data-name="Ellipse 3914" cx="49.951" cy="8.935" rx="49.951" ry="8.935" transform="translate(0 71.743)" fill="#dfe5e9"/>
    <g id="Group_1169" data-name="Group 1169" transform="translate(26.806 5.491)">
      <path id="Path_1244" data-name="Path 1244" d="M107.79,14.331V67.594a1.842,1.842,0,0,1-1.831,1.831H63.331A1.842,1.842,0,0,1,61.5,67.594V14.331A1.842,1.842,0,0,1,63.331,12.5H106A1.8,1.8,0,0,1,107.79,14.331Z" transform="translate(-61.5 -12.5)" fill="#fff" stroke="#485aa7" stroke-linecap="round" stroke-linejoin="round" stroke-miterlimit="10" stroke-width="2"/>
      <path id="Path_1245" data-name="Path 1245" d="M109.444,25.9V46.171a.986.986,0,0,1-1,1H75.4a.986.986,0,0,1-1-1V25.9a.986.986,0,0,1,1-1h33.039A.986.986,0,0,1,109.444,25.9Z" transform="translate(-68.777 -19.495)" fill="#b9c5e5"/>
      <path id="Path_1246" data-name="Path 1246" d="M108.821,49.555l-1.09,1.656a.617.617,0,0,1-.959,0L103.678,46.5a.617.617,0,0,0-.959,0L98.1,53.565a.5.5,0,0,0,.479.741h13.338a.49.49,0,0,0,.479-.741l-2.659-4.01A.531.531,0,0,0,108.821,49.555Z" transform="translate(-82.102 -31.553)" fill="#fff"/>
      <circle id="Ellipse_3915" data-name="Ellipse 3915" cx="2.005" cy="2.005" r="2.005" transform="translate(24.365 10.722)" fill="#fff"/>
      <path id="Path_1247" data-name="Path 1247" d="M107.806,86.99H75.595A1.377,1.377,0,0,1,74.2,85.595h0A1.377,1.377,0,0,1,75.595,84.2h32.167a1.377,1.377,0,0,1,1.395,1.395h0A1.316,1.316,0,0,1,107.806,86.99Z" transform="translate(-68.664 -52.948)" fill="#ccc"/>
      <path id="Path_1248" data-name="Path 1248" d="M107.806,99.99H75.595A1.377,1.377,0,0,1,74.2,98.595h0A1.377,1.377,0,0,1,75.595,97.2h32.167a1.377,1.377,0,0,1,1.395,1.395h0A1.34,1.34,0,0,1,107.806,99.99Z" transform="translate(-68.664 -60.282)" fill="#dfe5e9"/>
      <path id="Path_1249" data-name="Path 1249" d="M107.806,112.89H75.595a1.377,1.377,0,0,1-1.395-1.395h0a1.377,1.377,0,0,1,1.395-1.395h32.167a1.377,1.377,0,0,1,1.395,1.395h0A1.316,1.316,0,0,1,107.806,112.89Z" transform="translate(-68.664 -67.559)" fill="#ccc"/>
      <path id="Path_1250" data-name="Path 1250" d="M107.806,125.89H75.595a1.377,1.377,0,0,1-1.395-1.395h0a1.377,1.377,0,0,1,1.395-1.395h32.167a1.377,1.377,0,0,1,1.395,1.395h0A1.34,1.34,0,0,1,107.806,125.89Z" transform="translate(-68.664 -74.893)" fill="#dfe5e9"/>
    </g>
    <g id="Path_1251" data-name="Path 1251" transform="translate(-72.973 3.266)" fill="#9ed900">
      <path d="M 146.8451843261719 32.07476425170898 C 146.1535186767578 32.07476425170898 145.5492858886719 31.82123374938965 145.0492706298828 31.32122421264648 L 145.0363006591797 31.30826377868652 L 145.0238342285156 31.29483413696289 L 132.9212493896484 18.27095413208008 L 132.859130859375 18.20410537719727 L 132.8101348876953 18.12710380554199 L 132.5666809082031 17.74454116821289 C 132.109375 17.23024368286133 131.8999938964844 16.51381683349609 131.8999938964844 16.04077529907227 C 131.8999938964844 15.53872489929199 132.1358184814453 14.76256465911865 132.653564453125 14.24483489990234 L 134.8311767578125 12.06722450256348 C 135.3238525390625 11.57454490661621 135.961669921875 11.30321502685547 136.6271057128906 11.30321502685547 C 137.2925415039063 11.30321502685547 137.9303436279297 11.57454490661621 138.4230194091797 12.06722450256348 L 138.5905609130859 12.23478412628174 L 138.6030731201172 12.24729442596436 L 138.6151275634766 12.26024436950684 L 146.9740142822266 21.23374557495117 L 167.6087188720703 -0.1482954025268555 L 167.9036254882813 -0.4538753926753998 L 168.1342315673828 -0.4538753926753998 C 168.5637817382813 -0.7600572109222412 169.0658111572266 -0.9249954223632813 169.5846252441406 -0.9249954223632813 C 170.2500610351563 -0.9249954223632813 170.8878631591797 -0.6536654233932495 171.3805389404297 -0.1609854102134705 L 173.5581665039063 2.016634702682495 C 174.5800018310547 3.038494825363159 174.5819396972656 4.578671455383301 173.5641021728516 5.602536201477051 L 148.6521301269531 31.31002426147461 L 148.6466674804688 31.315673828125 L 148.6410980224609 31.32123374938965 C 148.1410827636719 31.82124519348145 147.5368499755859 32.07476425170898 146.8451843261719 32.07476425170898 Z" stroke="none"/>
      <path d="M 146.8451843261719 31.07476425170898 C 147.3058471679688 31.07476425170898 147.6408538818359 30.90725517272949 147.9340057373047 30.61411476135254 L 172.8510589599609 4.901374816894531 C 173.4792175292969 4.273214817047119 173.4792175292969 3.351914644241333 172.8510589599609 2.723744630813599 L 170.6734313964844 0.5461245775222778 C 170.3593597412109 0.232044592499733 169.9719848632813 0.07500459253787994 169.5846252441406 0.07500459253787994 C 169.1972503662109 0.07500459253787994 168.8098907470703 0.232044592499733 168.4958038330078 0.5461245775222778 L 168.3282928466797 0.5461245775222778 L 147.5152130126953 22.11299514770508 C 147.36865234375 22.25956535339355 147.1697235107422 22.33284950256348 146.9708099365234 22.33284950256348 C 146.7718811035156 22.33284950256348 146.5729675292969 22.25956535339355 146.4264068603516 22.11299514770508 L 137.8834075927734 12.94184494018555 L 137.7159118652344 12.77433490753174 C 137.4018402099609 12.46025466918945 137.0144653320313 12.30321502685547 136.6271057128906 12.30321502685547 C 136.2397308349609 12.30321502685547 135.8523712158203 12.46025466918945 135.5382843017578 12.77433490753174 L 133.3606567382813 14.95195484161377 C 133.0675048828125 15.24509429931641 132.8999938964844 15.74763488769531 132.8999938964844 16.04077529907227 C 132.8999938964844 16.33391380310059 133.0675048828125 16.83643531799316 133.3606567382813 17.12958526611328 L 133.6537933349609 17.59023475646973 L 145.7563781738281 30.61411476135254 C 146.0495147705078 30.90725517272949 146.3845367431641 31.07476425170898 146.8451843261719 31.07476425170898 M 146.8451843261719 33.07476425170898 C 145.878662109375 33.07476425170898 145.0365295410156 32.72269439697266 144.3421630859375 32.02832412719727 L 144.3162384033203 32.00241470336914 L 144.2912902832031 31.97555541992188 L 132.188720703125 18.95167541503906 L 132.0644683837891 18.81797409057617 L 131.9664764404297 18.66398429870605 L 131.7611236572266 18.34127807617188 C 131.2320709228516 17.71087265014648 130.8999938964844 16.83634185791016 130.8999938964844 16.04077529907227 C 130.8999938964844 15.15591430664063 131.3107604980469 14.17340469360352 131.9464721679688 13.53771495819092 L 134.1240692138672 11.36011505126953 C 134.8056182861328 10.67856502532959 135.6945495605469 10.30321502685547 136.6271057128906 10.30321502685547 C 137.5596466064453 10.30321502685547 138.4485778808594 10.67856502532959 139.130126953125 11.3601245880127 L 139.2976989746094 11.52771472930908 L 139.3227233886719 11.55274486541748 L 139.3468475341797 11.57863426208496 L 146.9868469238281 19.78039360046387 L 166.88916015625 -0.8427153825759888 L 167.4789581298828 -1.453875422477722 L 167.8414154052734 -1.453875422477722 C 168.3720245361328 -1.761308550834656 168.9688262939453 -1.924995422363281 169.5846252441406 -1.924995422363281 C 170.5171661376953 -1.924995422363281 171.4060974121094 -1.54964542388916 172.087646484375 -0.8680853843688965 L 174.2652587890625 1.309534549713135 C 175.6642913818359 2.708574295043945 175.6688537597656 4.897773742675781 174.2788848876953 6.301896095275879 L 149.3702697753906 32.00593566894531 L 149.3593139648438 32.0172233581543 L 149.3481903076172 32.02835464477539 C 148.6538238525391 32.72270584106445 147.8116912841797 33.07476425170898 146.8451843261719 33.07476425170898 Z" stroke="none" fill="#fff"/>
    </g>
  </g>
</svg>
