<svg xmlns="http://www.w3.org/2000/svg" width="264.996" height="228.526" viewBox="0 0 264.996 228.526">
  <g id="Group_1293" data-name="Group 1293" transform="translate(0 1.659)">
    <ellipse id="Ellipse_3914" data-name="Ellipse 3914" cx="129.418" cy="23.151" rx="129.418" ry="23.151" transform="translate(0 180.565)" fill="#dfe5e9"/>
    <g id="Group_1169" data-name="Group 1169" transform="translate(69.452 8.911)">
      <path id="Path_1244" data-name="Path 1244" d="M181.432,17.243v138a4.772,4.772,0,0,1-4.743,4.743H66.243a4.772,4.772,0,0,1-4.743-4.743v-138A4.772,4.772,0,0,1,66.243,12.5H176.8A4.676,4.676,0,0,1,181.432,17.243Z" transform="translate(-61.5 -12.5)" fill="#fff" stroke="#485aa7" stroke-linecap="round" stroke-linejoin="round" stroke-miterlimit="10" stroke-width="5"/>
      <path id="Path_1245" data-name="Path 1245" d="M165.2,27.5V80.01a2.556,2.556,0,0,1-2.6,2.6H77a2.556,2.556,0,0,1-2.6-2.6V27.5A2.556,2.556,0,0,1,77,24.9h85.6A2.556,2.556,0,0,1,165.2,27.5Z" transform="translate(-59.832 -10.897)" fill="#b9c5e5"/>
      <path id="Path_1246" data-name="Path 1246" d="M126,54.773l-2.823,4.291a1.6,1.6,0,0,1-2.484,0l-8.018-12.2a1.6,1.6,0,0,0-2.484,0L98.223,65.163a1.285,1.285,0,0,0,1.242,1.92h34.557a1.269,1.269,0,0,0,1.242-1.92l-6.889-10.39A1.376,1.376,0,0,0,126,54.773Z" transform="translate(-56.778 -8.133)" fill="#fff"/>
      <circle id="Ellipse_3915" data-name="Ellipse 3915" cx="5.195" cy="5.195" r="5.195" transform="translate(63.128 27.781)" fill="#fff"/>
      <path id="Path_1247" data-name="Path 1247" d="M161.269,91.428H77.814A3.568,3.568,0,0,1,74.2,87.814h0A3.568,3.568,0,0,1,77.814,84.2h83.342a3.568,3.568,0,0,1,3.614,3.614h0A3.409,3.409,0,0,1,161.269,91.428Z" transform="translate(-59.858 -3.229)" fill="#ccc"/>
      <path id="Path_1248" data-name="Path 1248" d="M161.269,104.428H77.814a3.568,3.568,0,0,1-3.614-3.614h0A3.568,3.568,0,0,1,77.814,97.2h83.342a3.568,3.568,0,0,1,3.614,3.614h0A3.472,3.472,0,0,1,161.269,104.428Z" transform="translate(-59.858 -1.548)" fill="#dfe5e9"/>
      <path id="Path_1249" data-name="Path 1249" d="M161.269,117.328H77.814a3.568,3.568,0,0,1-3.614-3.614h0a3.568,3.568,0,0,1,3.614-3.614h83.342a3.568,3.568,0,0,1,3.614,3.614h0A3.409,3.409,0,0,1,161.269,117.328Z" transform="translate(-59.858 0.12)" fill="#ccc"/>
      <path id="Path_1250" data-name="Path 1250" d="M161.269,130.328H77.814a3.568,3.568,0,0,1-3.614-3.614h0a3.568,3.568,0,0,1,3.614-3.614h83.342a3.568,3.568,0,0,1,3.614,3.614h0A3.472,3.472,0,0,1,161.269,130.328Z" transform="translate(-59.858 1.801)" fill="#dfe5e9"/>
    </g>
    <g id="Path_1251" data-name="Path 1251" transform="translate(22.366 3.266)" fill="#ccc">
      <path d="M 169.0305786132812 82.89221954345703 C 167.2386627197266 82.89221954345703 165.7376556396484 82.26231384277344 164.4418334960938 80.96651458740234 L 164.409423828125 80.93411254882812 L 164.3782348632812 80.90052795410156 L 133.0216522216797 47.15697479248047 L 132.8663024902344 46.98980331420898 L 132.7438049316406 46.79728317260742 L 132.1092681884766 45.80007553100586 C 130.9367370605469 44.48538970947266 130.4000091552734 42.65110397338867 130.4000091552734 41.44066619873047 C 130.4000091552734 40.15805053710938 131.0026702880859 38.17495727539062 132.3258666992188 36.85186767578125 L 137.9677886962891 31.20989799499512 C 139.2271423339844 29.95057487487793 140.8567810058594 29.25705146789551 142.5565643310547 29.25705146789551 C 144.2563323974609 29.25705146789551 145.885986328125 29.95057487487793 147.1453247070312 31.20988273620605 L 147.5794219970703 31.64402008056641 L 147.6106719970703 31.67529678344727 L 147.6408233642578 31.70765113830566 L 169.3631896972656 55.02724456787109 L 222.8922119140625 -0.4404103457927704 L 223.6294555664062 -1.20436418056488 L 224.2175750732422 -1.20436418056488 C 225.3203430175781 -1.997501373291016 226.6116333007812 -2.424994945526123 227.9461364746094 -2.424994945526123 C 229.6459350585938 -2.424994945526123 231.2756042480469 -1.731456518173218 232.534912109375 -0.4721180498600006 L 238.1769409179688 5.169866561889648 C 239.4362487792969 6.429204940795898 240.1297912597656 8.058866500854492 240.1297912597656 9.758650779724121 C 240.1297912597656 11.4516773223877 239.4417419433594 13.07514190673828 238.1919250488281 14.33239078521729 L 173.6469573974609 80.93849945068359 L 173.6332397460938 80.95265197753906 L 173.6193084716797 80.96659088134766 C 172.3234100341797 82.26234436035156 170.8224334716797 82.89221954345703 169.0305786132812 82.89221954345703 Z" stroke="none"/>
      <path d="M 169.0305786132812 80.39222717285156 C 170.2240753173828 80.39222717285156 171.0920715332031 79.95821380615234 171.8516387939453 79.19872283935547 L 236.4091644287109 12.57964706420898 C 238.0366363525391 10.95213794708252 238.0366363525391 8.56513786315918 236.4091644287109 6.937628746032715 L 230.7671356201172 1.295628786087036 C 229.9533996582031 0.4818742573261261 228.9497680664062 0.07499698549509048 227.9461364746094 0.07499698549509048 C 226.9425048828125 0.07499698549509048 225.9388732910156 0.4818742573261261 225.1251068115234 1.295628786087036 L 224.6911468505859 1.295628786087036 L 170.7665252685547 57.17319107055664 C 170.3868103027344 57.55294799804688 169.8714294433594 57.74282455444336 169.3560333251953 57.74282455444336 C 168.8406524658203 57.74282455444336 168.3252716064453 57.55294799804688 167.945556640625 57.17319107055664 L 145.8115234375 33.41166687011719 L 145.3775787353516 32.97766494750977 C 144.5638122558594 32.16392135620117 143.5601806640625 31.75704765319824 142.5565643310547 31.75704765319824 C 141.5529327392578 31.75704765319824 140.54931640625 32.16392135620117 139.7355651855469 32.97766494750977 L 134.0935821533203 38.61968231201172 C 133.3340301513672 39.37917327880859 132.9000091552734 40.68117523193359 132.9000091552734 41.44066619873047 C 132.9000091552734 42.20017242431641 133.3340301513672 43.50217437744141 134.0935821533203 44.26168441772461 L 134.8529968261719 45.45517349243164 L 166.2095794677734 79.19872283935547 C 166.9690704345703 79.95821380615234 167.8370971679688 80.39222717285156 169.0305786132812 80.39222717285156 M 169.0305786132812 85.39222717285156 C 166.5764007568359 85.39222717285156 164.437744140625 84.49795532226562 162.6740570068359 82.73424530029297 L 162.6092529296875 82.66946411132812 L 162.546875 82.60234069824219 L 131.1902923583984 48.85879135131836 L 130.8795928955078 48.52444839477539 L 130.6345520019531 48.13935470581055 L 130.0961761474609 47.29323577880859 C 129.4700164794922 46.54905319213867 128.9452362060547 45.65988159179688 128.5612182617188 44.68708419799805 C 128.2595825195312 43.92295455932617 127.900016784668 42.73946380615234 127.900016784668 41.44066619873047 C 127.900016784668 40.14186477661133 128.2595825195312 38.9583740234375 128.5612335205078 38.19424819946289 C 129.0363006591797 36.99081039428711 129.7268371582031 35.91530227661133 130.5581817626953 35.08403015136719 L 136.2000122070312 29.442138671875 C 137.9315795898438 27.71061134338379 140.1890258789062 26.75704765319824 142.5565643310547 26.75704765319824 C 144.9241027832031 26.75704765319824 147.1815643310547 27.71061134338379 148.9130706787109 29.44208335876465 L 149.3472900390625 29.87635612487793 L 149.4098358154297 29.93891906738281 L 149.4701232910156 30.00364685058594 L 169.395263671875 51.39385604858398 L 221.0932922363281 -2.176480293273926 L 222.5677947998047 -3.704371213912964 L 223.4789123535156 -3.704371213912964 C 224.8367004394531 -4.500694751739502 226.3670043945312 -4.925007343292236 227.9461364746094 -4.925007343292236 C 230.3137054443359 -4.925007343292236 232.5711517333984 -3.971425771713257 234.3026733398438 -2.239898443222046 L 239.9446868896484 3.402083396911621 C 241.6761932373047 5.133646965026855 242.6297607421875 7.391083240509033 242.6297607421875 9.758646965026855 C 242.6297607421875 12.11130905151367 241.6882629394531 14.35512351989746 239.9774169921875 16.08230209350586 L 175.4422912597656 82.67826843261719 L 175.4148712158203 82.70655822753906 L 175.3869934082031 82.73442840576172 C 173.6232299804688 84.49800872802734 171.4846343994141 85.39222717285156 169.0305786132812 85.39222717285156 Z" stroke="none" fill="#fff"/>
    </g>
  </g>
</svg>
